<?xml version="1.0" encoding="utf-8"?>
<!DOCTYPE svg PUBLIC "-//W3C//DTD SVG 1.0//EN" "http://www.w3.org/TR/2001/REC-SVG-20010904/DTD/svg10.dtd">
<svg version="1.0" xmlns="http://www.w3.org/2000/svg" width="1024px" height="1024px" viewBox="0 0 1024 1024" preserveAspectRatio="xMidYMid meet">
 <g fill="#000000">
  <path d="M973.2 1014.8 l0.3 -9.3 10.5 0 10.5 0 0.3 9.3 0.3 9.2 -11.1 0 -11.1 0 0.3 -9.2z"/>
  <path d="M1005 1009.5 c0 -3.4 0.1 -3.5 4 -3.5 3.9 0 4 0.1 4 3.5 0 3.4 -0.1 3.5 -4 3.5 -3.9 0 -4 -0.1 -4 -3.5z"/>
  <path d="M342.4 933.6 c-9.7 -2.2 -18.1 -7.1 -25.4 -14.6 -10.6 -10.9 -16.9 -25.6 -17 -39.6 0 -3.3 -0.6 -6.7 -1.2 -7.6 -0.7 -0.9 -4.5 -3 -8.3 -4.6 -3.9 -1.7 -9.7 -4.7 -13 -6.6 -3.3 -2 -7.6 -4.5 -9.5 -5.7 -11.7 -6.8 -30.1 -18 -33.5 -20.2 -19 -12.5 -36 -24.6 -41 -29.2 -1.6 -1.5 -4.6 -4 -6.6 -5.4 -3.5 -2.6 -7.1 -6.5 -20 -21.9 -7.7 -9.2 -16.8 -25.1 -20.3 -35.5 -2.3 -7 -6.3 -27.3 -8.1 -41.7 -0.9 -6.9 -1.8 -13.1 -2 -13.7 -0.2 -0.7 -0.9 -6.1 -1.5 -12 -0.6 -6 -1.7 -15.3 -2.5 -20.8 -1.5 -10.9 -3.9 -29.8 -5.5 -44 -0.6 -4.9 -1.7 -13.7 -2.6 -19.5 -2 -13 -6 -21.2 -14.9 -30.8 l-6.2 -6.7 -4 3.6 c-11.4 10.3 -24.9 14.7 -41.9 13.6 -12.6 -0.8 -21.2 -4.2 -30.1 -11.6 -10.2 -8.6 -15.5 -17.4 -17 -28.2 l-0.8 -5.4 -4.8 -0.3 -4.7 -0.3 0 -8.5 0 -8.4 4.3 0 4.2 0 1.4 -5.7 c3.6 -15.8 14.2 -29.4 27.8 -35.8 18.7 -8.9 47.5 -6 60.1 6.2 2.5 2.4 4.9 4.3 5.3 4.3 0.4 0 3.1 -2.6 5.9 -5.8 9.4 -10.4 16 -27.7 18 -46.7 1.1 -10.1 4.4 -41.3 6 -55 2.8 -25.3 9.7 -67 12.6 -75.9 3.2 -9.8 13.6 -28.2 21.9 -38.7 8.6 -10.9 21.2 -23.4 30.5 -30.3 3 -2.2 9.8 -7.2 15 -11.1 18 -13.6 60.6 -39.3 81.8 -49.4 l5.2 -2.5 0 -7.6 c0.1 -25.5 17.9 -49.4 41.6 -55.4 3.7 -1 10.4 -1.6 16.4 -1.6 18.3 0 29.6 4.6 42 17 8.2 8.1 11.3 13.4 13.9 23.2 l1.6 6.3 33 0.7 c43.4 0.9 73.5 3.8 148.5 14.2 22.6 3.2 62.1 9.4 63.9 10.1 0.8 0.3 10.8 2.1 22.4 4.1 11.6 1.9 21.4 3.7 21.7 3.9 0.4 0.3 4.7 1.1 9.6 1.9 21 3.6 39.1 7.2 64.2 12.7 7.4 1.6 13.6 2.9 13.8 2.9 0.2 0 0.4 1.6 0.4 3.5 0 4.4 0.8 4.3 -21.3 0.6 -16.1 -2.8 -26.6 -4.2 -87.7 -12.1 -12.9 -1.7 -28 -3.7 -33.5 -4.5 -12.6 -1.9 -39.5 -5 -59 -7 -8.2 -0.8 -20.8 -2.2 -28 -3 -11.6 -1.4 -34.3 -3.8 -61.5 -6.5 -23.8 -2.4 -35.5 -3 -59.4 -3 l-25.6 0 -0.4 2.3 c-3.9 18.7 -7.9 26.9 -17.6 36 -8.4 8 -16.1 12.3 -27 14.9 -9.7 2.3 -21.4 2 -31 -0.8 -5.5 -1.6 -18.4 -8.8 -22.8 -12.8 -3.2 -2.8 -10.5 -13.3 -12.1 -17.3 -0.8 -1.8 -1.6 -3.3 -2 -3.3 -3.1 0.2 -56.6 31.7 -62.6 37 -1.1 1 -4.2 3 -7 4.6 -6.4 3.5 -23.5 16.2 -23.5 17.4 0 0.5 -1.8 2.1 -4 3.5 -6.5 4.1 -23.6 22.4 -30.5 32.6 -3.6 5.2 -6.5 10 -6.5 10.6 0 0.6 -0.8 2.1 -1.9 3.4 -4.3 5.5 -12.6 40.6 -14.6 62.2 -0.3 3.4 -1.2 10.3 -2 15.2 -0.9 5 -1.9 13.3 -2.4 18.5 -0.6 5.2 -1.7 16.7 -2.5 25.5 -4.2 42.4 -8.7 56.7 -23.3 73.3 -4.3 4.8 -8.1 9 -8.5 9.3 -0.5 0.3 -0.4 1.9 0.1 3.5 0.5 1.6 1.2 4.7 1.6 6.8 l0.6 3.9 11.2 -0.6 c6.2 -0.4 23.8 -0.7 39.1 -0.7 l27.9 0 -0.6 -61.2 c-0.5 -43.7 -0.4 -62.8 0.4 -66.9 2.1 -10.7 9.6 -16.7 22.3 -17.6 13.2 -1 21.9 3.3 26.3 13.2 1.7 3.7 1.8 8.9 2.1 68.8 l0.3 64.7 37.4 0 37.4 0 0.3 -50.7 c0.3 -49.8 0.3 -50.9 2.5 -54.8 5.6 -10.4 18.1 -15.4 31.4 -12.6 7.9 1.7 12.2 5 15.6 11.8 l2.8 5.8 0.3 50.4 0.3 50.4 25.6 -0.6 c14.1 -0.4 30.7 -0.7 37 -0.7 l11.3 0 0 -40.8 0 -40.8 2.8 -5.4 c1.8 -3.8 4.3 -6.6 7.7 -9 4.7 -3.3 5.4 -3.5 14.6 -3.8 8.7 -0.3 10.1 -0.1 14.5 2.1 5.8 3 8.7 5.9 11.1 11.2 1.6 3.6 1.8 8.2 2.1 45.8 l0.3 41.7 30.2 -0.2 30.2 -0.3 0.7 -12 c0.4 -6.6 1.2 -14.5 1.8 -17.5 0.5 -3 1.5 -9.5 2.1 -14.5 0.5 -4.9 1.7 -11.9 2.5 -15.5 0.8 -3.6 2.6 -12.1 4 -19 1.3 -6.9 3.1 -14.7 3.8 -17.5 0.8 -2.7 2.2 -9.2 3.2 -14.2 l1.8 -9.3 8.3 0 8.3 0 0 4.9 c0 2.7 -0.9 9.3 -2 14.8 -2.5 12.2 -5.3 28.2 -7.4 43.3 -0.9 6.3 -2.1 14.7 -2.7 18.5 -1 7.1 -2.9 30.5 -2.9 35.6 l0 2.9 41.4 0 41.5 0 0.3 -30.7 0.3 -30.8 3 -5.4 c2.6 -4.6 3.9 -5.8 9 -8.3 11 -5.2 28.4 -3.2 34.7 3.8 4.9 5.5 5.3 8.2 5.8 40.4 l0.5 30.5 21.5 0.3 c11.8 0.2 27.5 0 34.8 -0.3 l13.2 -0.7 0 -70 c0 -68.3 0 -70 2.1 -74.6 3.9 -9 14.5 -14 26.8 -12.8 12.8 1.3 20.4 7.4 23 18.6 0.7 2.9 1.1 29.3 1.1 72.3 l0 67.7 19.8 0 c10.8 0 27.5 -0.3 37 -0.7 16.6 -0.6 17.2 -0.7 17.2 -2.7 0 -3.7 2.8 -11.4 6.5 -18 10.4 -18.6 31.8 -28 56.5 -24.6 17.9 2.4 31.4 12.2 39.4 28.4 4.8 9.5 5.8 15.3 5.4 29.4 -0.3 11.6 -0.3 11.8 -4.8 20.6 -5.7 11.2 -9.2 15.3 -18.6 21.5 -8.5 5.7 -11.3 6.7 -24.2 8.3 -16 2 -29 -1.2 -41.8 -10.4 -7.2 -5.1 -15.4 -18.4 -17.8 -28.6 l-1.3 -5.7 -33.4 -0.3 c-18.4 -0.1 -34.9 0 -36.6 0.3 l-3.3 0.6 0 68 c0 46.3 -0.4 69.4 -1.1 72.4 -1.4 5.4 -6.7 11.8 -12.3 14.8 -6.1 3.2 -20.2 3.1 -26.8 -0.1 -5.8 -2.9 -10.3 -7.9 -11.7 -12.9 -0.7 -2.5 -1.1 -27.8 -1.1 -73 l0 -69.3 -35 0 -34.9 0 -0.3 32.3 -0.3 32.2 -3 4.5 c-1.7 2.4 -5 5.8 -7.3 7.5 -4 2.8 -5.1 3 -14 3.3 -9.1 0.3 -10 0.2 -15.2 -2.6 -6.4 -3.4 -10.4 -8.6 -11.9 -15.4 -0.7 -3 -0.8 -14.9 -0.4 -33.3 l0.6 -28.5 -42.1 0 c-23.2 0 -42.2 0.3 -42.2 0.8 0 6.1 3.4 42.6 4.4 48.2 0.8 4.1 1.8 10 2.2 13 0.3 3 1.9 13.4 3.6 23 4.6 27.5 4.9 29.2 5.5 33.8 l0.6 4.3 -8.4 -0.3 -8.4 -0.3 -2.8 -12 c-10.8 -46.9 -17.6 -86.9 -17.7 -103.7 l0 -6.8 -30.4 0 -30.5 0 -0.3 41.8 -0.3 41.7 -2.7 4.7 c-4.3 7.1 -9.6 10.8 -17.6 12 -16 2.5 -29.1 -5.4 -32.1 -19.3 -0.7 -3.1 -1.1 -19.7 -1.1 -42.9 l0 -38 -36.5 0 -36.4 0 -0.3 48.8 -0.3 48.7 -3.2 6.7 c-4.1 8.8 -8 11 -20.4 11.6 -14 0.7 -20.4 -2.4 -25.4 -12.4 l-3 -5.9 -0.3 -48.6 -0.3 -48.7 -3.1 -0.6 c-1.7 -0.3 -18.5 -0.6 -37.4 -0.6 l-34.4 0 0 63.3 c-0.1 68.4 0 66.7 -5.7 74.9 -4.3 6.3 -9.4 8.1 -21.2 7.6 -6.5 -0.4 -10.7 -1.1 -12.9 -2.3 -4.5 -2.3 -9.9 -10 -11.2 -15.8 -0.6 -3 -1 -27.2 -1 -65.8 l0 -60.9 -38.7 0.2 -38.6 0.3 -1.2 5.2 -1.2 5.2 7.4 7.3 c10.7 10.6 17.8 24.4 20.2 39.3 0.6 3.9 1.8 13.8 2.6 22 0.8 8.3 2.1 19.3 3 24.5 0.8 5.2 2.6 19.4 4 31.5 2.9 24.4 4.9 39.5 6.4 47 0.5 2.8 1.6 8.6 2.4 13 3.5 19.5 15.9 39.7 37.9 61.8 4.2 4.2 8 7.7 8.3 7.7 0.4 0 2.3 1.3 4.3 3 6.4 5.2 23.5 17.4 29.6 21 3.2 1.9 9.3 5.9 13.5 8.8 4.2 2.9 9.9 6.3 12.6 7.6 2.8 1.4 6.5 3.6 8.4 5 1.9 1.4 4 2.6 4.6 2.6 0.6 0 2.9 1.3 5.1 2.9 4.3 3.1 18.3 10.6 18.8 10 0.2 -0.2 1.8 -3.3 3.7 -6.9 3.9 -7.4 11.9 -16 19.9 -21.2 15.2 -9.9 44.6 -10.2 60.6 -0.7 8.4 5 17.6 14 21.2 20.6 3.3 6.3 7.2 19.7 7.2 25 l0 3.4 16.3 -0.6 c8.9 -0.3 23 -0.7 31.2 -1 13.6 -0.5 24.6 -1.3 59.5 -4.5 57.5 -5.2 75.2 -7.1 88.5 -9 3.9 -0.6 11.5 -1.5 17 -2 26 -2.6 88.3 -9.7 92.5 -10.5 1.4 -0.2 9 -1.1 17 -2 8 -0.8 19.7 -2.2 26 -3 28.7 -3.9 33.7 -4.5 36.8 -4.5 3 0 3.2 0.2 3.2 3.5 0 2.1 -0.5 3.5 -1.2 3.5 -4.5 0.1 -51.9 8.1 -68.2 11.6 -3.9 0.8 -12.5 2.4 -19.1 3.4 -29.2 4.6 -50.7 7.9 -59 8.9 -4.9 0.7 -14.8 2.3 -22 3.6 -7.1 1.3 -18.8 3.1 -25.9 4 -7.1 0.9 -13.2 1.8 -13.6 2 -1.1 0.7 -22.8 3.2 -47 5.5 -11.3 1.1 -24.1 2.4 -28.5 3 -4.4 0.5 -15.9 1.4 -25.5 2 -9.6 0.6 -18.8 1.3 -20.5 1.6 -1.6 0.4 -15.3 0.9 -30.3 1.3 l-27.4 0.6 -2.7 8 c-3.4 9.9 -6.2 14.4 -13.7 21.8 -6 5.9 -13.9 10.7 -22.3 13.3 -6.7 2.2 -27.2 2.7 -34.7 1z m474.7 -269.6 c5.1 -2.8 4.8 3.9 4.9 -148.4 0.1 -99.8 -0.2 -142.1 -1 -143.6 -0.6 -1.1 -2.4 -2.7 -4 -3.5 -2.7 -1.4 -3.1 -1.4 -5.7 0.9 l-2.8 2.4 -0.3 143.7 -0.2 143.6 2.9 3 c3.3 3.3 3.5 3.3 6.2 1.9z m-593.1 -13 l2.5 -1.9 0.3 -131.5 0.2 -131.4 -2.6 -3.1 c-3 -3.6 -5.9 -3.9 -9.1 -0.9 l-2.3 2.1 0 131.7 c0 139.2 -0.2 133.3 4.5 135.8 2.8 1.6 3.6 1.4 6.5 -0.8z m127.1 -29.2 c1.1 -1.3 2.5 -3.3 3 -4.6 1.4 -3.7 1.2 -199.5 -0.3 -202.9 -3 -7.1 -7.2 -8.3 -11 -3 l-2.3 3.2 0 102.8 0 102.8 2.5 1.9 c3.3 2.6 5.5 2.5 8.1 -0.2z m128.2 -17 c1.6 -1.9 1.7 -7.6 1.7 -88.3 l0 -86.3 -3 -2.5 c-3.6 -3.1 -6.2 -2.6 -9.5 1.8 l-2.5 3.2 0 83.6 c0 50.6 0.4 84.6 1 86.1 1.1 3 5.7 5.7 8.5 5 1.1 -0.3 2.8 -1.5 3.8 -2.6z m217.5 -19 c1.1 -1.3 2.5 -3.6 3.1 -5.1 0.7 -1.9 1.1 -23.3 1.1 -64.8 l0 -62.1 -3 -3 c-3.6 -3.5 -7.1 -3.3 -10.7 0.8 l-2.3 2.5 0 63.2 c0.1 67.7 0 66.5 5.1 69.3 3.3 1.8 4.2 1.7 6.7 -0.8z"/>
  <path d="M574.8 768.9 c-6.5 -1.5 -17.4 -7.6 -24.4 -13.7 -19.2 -16.6 -24.2 -47.6 -11.8 -73.8 5.6 -12 19.8 -23.6 33.4 -27.3 10.2 -2.8 28.6 -2.9 38.2 -0.2 19.9 5.7 36 23.6 40 44.3 l1.2 6.5 12 0.7 c6.5 0.3 87.7 0.6 180.3 0.6 l168.3 0 0 8.5 0 8.5 -181 0 -181 0 -0.6 2.8 c-0.4 1.5 -2.8 7 -5.4 12.2 -3.7 7.3 -6.3 10.9 -11.2 15.6 -7.1 6.9 -19 13.5 -27.6 15.3 -6.1 1.3 -25 1.3 -30.4 0z"/>
  <path d="M576.4 381.5 c-7.1 -1.5 -15.3 -5.4 -20.9 -10 -2.2 -1.7 -5 -3.7 -6.3 -4.4 -3.9 -2.1 -12 -15.6 -14.7 -24.6 -2 -6.4 -2.5 -10.3 -2.5 -18.6 0 -27.9 13.3 -47.8 38.4 -57.6 6.6 -2.6 8.1 -2.8 20.6 -2.7 12.5 0 14 0.3 20.5 2.9 18 7.3 30.4 19.8 36.1 36.3 l1.9 5.2 181.2 0 181.3 0 0 9 0 9 -180 0 c-143.2 0 -180.1 0.3 -180.4 1.3 -0.2 0.6 -0.8 4.2 -1.4 7.9 -1.2 7.9 -7.3 20.8 -13.2 27.8 -4.6 5.5 -13.4 11.8 -21.6 15.3 -10.3 4.5 -26.8 5.9 -39 3.2z"/>
  <path d="M800 199.5 c0 -3.4 0.1 -3.5 4 -3.5 3.9 0 4 0.1 4 3.5 0 3.4 -0.1 3.5 -4 3.5 -3.9 0 -4 -0.1 -4 -3.5z"/>
 </g>
 <g fill="#ffffff">
  <path d="M0 773 l0 -251.1 6.2 0.3 6.3 0.3 0.8 5.4 c1.5 10.8 6.8 19.6 17 28.2 19.9 16.7 47.6 15.3 67.5 -3.4 l5.2 -5 7.8 7.9 c13.1 13.4 15.7 20.4 19.2 51.9 1.6 14.2 4 33.1 5.5 44 0.8 5.5 1.9 14.8 2.5 20.8 0.6 5.9 1.3 11.3 1.5 12 0.2 0.6 1.1 6.8 2 13.7 1.8 14.4 5.8 34.7 8.1 41.7 3.5 10.4 12.6 26.3 20.3 35.5 12.9 15.4 16.5 19.3 20 21.9 2 1.4 5 3.9 6.6 5.4 5 4.6 22 16.7 41 29.2 3.4 2.2 21.8 13.4 33.5 20.2 1.9 1.2 6.2 3.7 9.5 5.7 3.3 1.9 9.1 4.9 13 6.6 3.8 1.6 7.6 3.7 8.3 4.6 0.6 0.9 1.2 4.3 1.2 7.6 0.1 14 6.4 28.7 17 39.7 20.3 20.9 55.4 21.1 76.4 0.2 7.5 -7.4 10.3 -11.9 13.7 -21.8 l2.7 -8 27.4 -0.6 c15 -0.4 28.7 -0.9 30.3 -1.3 1.7 -0.3 10.9 -1 20.5 -1.6 9.6 -0.6 21.1 -1.5 25.5 -2 4.4 -0.6 17.2 -1.9 28.5 -3 24.2 -2.3 45.9 -4.8 47 -5.5 0.4 -0.2 6.5 -1.1 13.6 -2 7.1 -0.9 18.8 -2.7 25.9 -4 7.2 -1.3 17.1 -2.9 22 -3.6 8.2 -1 27.8 -3.9 59 -8.9 6.7 -1 14.1 -2.3 16.5 -2.9 8.6 -1.9 42.6 -8 51.5 -9.2 4.9 -0.7 8.3 -1.5 7.5 -1.7 -0.7 -0.3 -5 0 -9.4 0.7 -15.1 2.1 -31 4.1 -44.6 5.6 -7.4 0.8 -20.9 2.4 -30 3.5 -18.2 2.1 -56.9 6.4 -72.5 8 -5.5 0.5 -13.1 1.4 -17 2 -10 1.5 -30.6 3.7 -55.5 6 -11.8 1.1 -26.2 2.4 -32 2.9 -41.3 3.9 -57.4 4.9 -90.2 5.7 l-23.8 0.5 0 -3.4 c0 -5.3 -3.9 -18.7 -7.2 -25 -3.6 -6.6 -12.8 -15.6 -21.2 -20.6 -6.3 -3.8 -18.5 -7.1 -26 -7.1 -8.4 0 -22.5 3.9 -28.6 7.8 -8.8 5.8 -16.2 14 -20.6 22.8 -2.1 4.3 -4 8.1 -4.2 8.4 -0.2 0.2 -1.3 -0.2 -2.5 -1 -1.2 -0.7 -5.6 -3.2 -9.7 -5.3 -4.1 -2.2 -9.3 -5.3 -11.4 -6.9 -2.2 -1.5 -4.5 -2.8 -5.1 -2.8 -0.6 0 -2.7 -1.2 -4.6 -2.6 -1.9 -1.4 -5.6 -3.6 -8.4 -5 -2.7 -1.3 -8.4 -4.7 -12.6 -7.6 -4.2 -2.9 -10.3 -6.9 -13.5 -8.8 -6.1 -3.6 -23.2 -15.8 -29.6 -21 -2 -1.7 -3.9 -3 -4.3 -3 -1 0 -15.3 -14.7 -22.1 -22.6 -6.8 -7.9 -15.9 -22.7 -19.9 -32.4 -1.5 -3.6 -3.4 -10.1 -4.2 -14.5 -0.8 -4.4 -1.9 -10.2 -2.4 -13 -1.5 -7.5 -3.5 -22.6 -6.4 -47 -1.4 -12.1 -3.2 -26.3 -4 -31.5 -0.9 -5.2 -2.2 -16.2 -3 -24.5 -2 -20.3 -3.3 -27.8 -6.1 -35.2 -4 -10.7 -8.4 -17.5 -17.1 -26.5 -7.2 -7.4 -8.4 -9 -7.7 -11 0.4 -1.3 1.3 -4.5 1.9 -7.3 l1.2 -5 41.6 -0.3 41.7 -0.2 0 60.9 c0 38.6 0.4 62.8 1 65.8 1.3 5.9 6.7 13.5 11.2 15.8 1.8 0.9 6.3 1.9 9.9 2.2 8.5 0.7 14.2 -1.6 18.2 -7.5 5.7 -8.2 5.6 -6.5 5.7 -74.9 l0 -63.3 37.4 0 c20.5 0 38.7 0.3 40.4 0.6 l3.1 0.6 0.3 48.7 0.3 48.6 3 5.9 c3.2 6.4 6.9 9.7 12.9 11.6 5.2 1.7 14.2 0.8 19.5 -2 3.5 -1.8 4.8 -3.3 7.4 -8.8 l3.2 -6.7 0.3 -48.7 0.3 -48.8 39.4 0 39.5 0 0 38 c0 39.7 0.5 45.5 4.3 51.2 10.3 15.3 31.2 14.7 40.5 -1 l2.7 -4.7 0.3 -41.7 0.3 -41.8 33.5 0 33.4 0 0 6.8 c0.1 16.8 6.9 56.7 17.7 103.7 l2.8 12 5.3 0.3 c3.2 0.2 5.1 -0.1 4.8 -0.6 -0.3 -0.5 -1 -3.8 -1.5 -7.3 -0.6 -3.5 -2.3 -14.3 -3.9 -23.9 -1.7 -9.6 -3.3 -20 -3.6 -23 -0.4 -3 -1.4 -8.9 -2.2 -13 -0.8 -4.1 -2.1 -16.3 -2.9 -27.1 -0.8 -10.8 -1.7 -21.5 -2.1 -23.8 l-0.7 -4.1 45.8 0 45.8 0 -0.6 28.8 c-0.3 16.6 -0.1 30.6 0.5 33.2 1.3 6.5 5.4 11.8 11.8 15.2 4.8 2.6 6.3 2.9 12.2 2.6 8 -0.4 13.4 -3.7 18.3 -10.8 l3 -4.5 0.3 -32.2 0.3 -32.3 37.9 0 38 0 0 69.3 c0 45.2 0.4 70.5 1.1 73 3.3 12.1 20.7 19 32.5 12.9 5.6 -2.8 10.9 -9.3 12.3 -14.7 0.7 -3 1.1 -26.1 1.1 -72.4 l0 -68 3.3 -0.6 c1.7 -0.3 19.6 -0.4 39.6 -0.3 l36.4 0.3 1.3 5.7 c2.4 10.2 10.6 23.5 17.8 28.6 14.9 10.7 30 13.2 48.8 8.1 4.3 -1.1 17 -9.4 21 -13.6 3.3 -3.5 9.7 -14.9 12.8 -22.8 1.3 -3.3 2.7 -6.4 3.2 -7 0.4 -0.5 0.8 112.4 0.8 250.8 l0 251.7 -16 0 -16 0 -0.1 -6.5 c-0.1 -3.6 -0.2 -7 -0.3 -7.7 -0.1 -0.8 -2.5 -1.2 -7.6 -1.3 l-7.5 0 -0.3 7.8 -0.3 7.7 -487.9 0 -488 0 0 -251z m794.8 66.3 c-1 -0.2 -2.6 -0.2 -3.5 0 -1 0.3 -0.2 0.5 1.7 0.5 1.9 0 2.7 -0.2 1.8 -0.5z m-192.6 -73.4 c8.6 -1.8 20.5 -8.4 27.6 -15.3 4.9 -4.7 7.5 -8.3 11.2 -15.6 2.6 -5.2 5 -10.7 5.4 -12.2 l0.6 -2.8 181 0 181 0 0 -5.5 0 -5.5 -168.3 0 c-92.6 0 -173.8 -0.3 -180.3 -0.6 l-12 -0.7 -1.2 -6.5 c-4 -20.7 -20.1 -38.6 -40 -44.3 -14.7 -4.2 -33.8 -1.6 -45.8 6.2 -12.7 8.2 -20.3 18.8 -24.5 34.1 -5.4 19.3 1.4 41.9 16.5 55 7 6.1 17.9 12.2 24.4 13.7 5.4 1.3 18.3 1.3 24.4 0z"/>
  <path d="M811.3 667.5 c-6.8 -2.9 -6.3 9.4 -6.1 -152.4 l0.3 -146.3 2.8 -2.4 c4.5 -3.9 13 -2.4 15.8 2.7 0.8 1.5 1 41.7 0.9 146.6 -0.1 158.4 0.3 148.5 -6 151.8 -3.5 1.8 -3.6 1.8 -7.7 0z"/>
  <path d="M214.5 654.8 c-4.7 -2.5 -4.5 3.6 -4.5 -138.9 l0 -134.7 3.2 -2.7 c4.3 -3.6 10 -3 14.1 1.5 l2.7 3.1 -0.2 134.5 -0.3 134.5 -2.5 1.9 c-2.8 2.2 -9.3 2.6 -12.5 0.8z"/>
  <path d="M342.2 626.3 c-1.9 -0.9 -3.8 -2.7 -4.3 -4 -1 -2.7 -1.3 -204.2 -0.3 -209.2 0.4 -1.7 2 -4.6 3.6 -6.3 2.5 -2.7 3.3 -3 6.9 -2.5 2.2 0.3 4.9 1.3 5.8 2.1 4.2 3.8 4.2 4.7 3.9 111.6 -0.3 100.7 -0.3 102.5 -2.3 105.2 -1.8 2.5 -6.2 4.8 -8.9 4.8 -0.6 0 -2.6 -0.8 -4.4 -1.7z"/>
  <path d="M467.7 609.5 c-1.5 -0.9 -3.2 -2.7 -3.7 -4.1 -0.6 -1.5 -1 -36.7 -1 -89.3 l0 -86.7 2.8 -3.3 c2.1 -2.6 3.7 -3.4 7.3 -3.8 3.8 -0.4 5 -0.1 7.7 2.2 l3.2 2.7 0 89.3 c0 84.7 -0.1 89.4 -1.8 91.5 -2.4 2.9 -10.4 3.7 -14.5 1.5z"/>
  <path d="M687.1 589.6 c-5.1 -2.8 -5 -1.4 -5.1 -72.3 l0 -66.2 2.3 -2.7 c1.9 -2.2 3.4 -2.8 8 -3.2 5.2 -0.4 5.8 -0.2 8.7 2.6 l3 3 0 65.1 c0 43.6 -0.4 65.9 -1.1 67.8 -1.9 5 -4.8 7.3 -9.3 7.3 -2.3 -0.1 -5.2 -0.7 -6.5 -1.4z"/>
  <path d="M1022.2 512.8 c-0.6 -1.3 -1.6 -4.5 -2.2 -7.3 -1.6 -7.6 -7.5 -18.6 -13.7 -25.4 -4.3 -4.8 -7.3 -7 -13.7 -10 -25.1 -12 -54.2 -3.5 -67.1 19.5 -3.7 6.6 -6.5 14.3 -6.5 18 0 2 -0.6 2.1 -17.2 2.7 -9.5 0.4 -27.5 0.7 -40 0.7 l-22.8 0 0 -67.7 c0 -43 -0.4 -69.4 -1.1 -72.3 -2.3 -10.1 -8.6 -16.1 -19 -18 -10.2 -1.9 -21 3.4 -24.8 12.2 -2.1 4.6 -2.1 6.3 -2.1 74.6 l0 70 -13.2 0.7 c-7.3 0.3 -24.3 0.5 -37.8 0.3 l-24.5 -0.3 -0.5 -30.5 c-0.4 -26.4 -0.7 -31 -2.3 -34.5 -2.5 -5.5 -4.4 -7.4 -10.2 -10.1 -7.1 -3.4 -14.3 -3.2 -22 0.4 -5.1 2.5 -6.4 3.7 -9 8.3 l-3 5.4 -0.3 30.8 -0.3 30.7 -44.5 0 -44.4 0 0 -5.9 c0 -7.6 1.7 -29.8 2.9 -38.6 0.6 -3.8 1.8 -12.2 2.7 -18.5 2.1 -15.1 4.9 -31.1 7.4 -43.3 2.9 -14.2 3 -13.7 -3.3 -13.7 l-5.3 0 -1.8 9.3 c-1 5 -2.4 11.5 -3.2 14.2 -0.7 2.8 -2.5 10.6 -3.8 17.5 -1.4 6.9 -3.2 15.4 -4 19 -0.8 3.6 -2 10.6 -2.5 15.5 -0.6 5 -1.6 11.5 -2.1 14.5 -0.6 3 -1.4 10.9 -1.8 17.5 l-0.7 12 -33.2 0.3 -33.2 0.2 -0.3 -41.7 c-0.3 -37.6 -0.5 -42.2 -2.1 -45.8 -2.4 -5.4 -5.3 -8.2 -11.1 -11.2 -4.2 -2.1 -6 -2.4 -11.6 -2.1 -8.7 0.5 -15.2 4.8 -19.2 12.8 l-2.8 5.4 0 40.6 0 40.7 -30.2 0.6 c-16.6 0.4 -34.5 0.7 -39.9 0.7 l-9.8 0 -0.3 -50.2 -0.3 -50.3 -2.8 -5.8 c-8.2 -16.7 -31.9 -16.2 -41 0.8 -2.2 3.9 -2.2 5 -2.5 54.8 l-0.3 50.7 -40.4 0 -40.4 0 -0.3 -64.7 c-0.3 -71.9 0 -68.8 -7.1 -76.1 -8.4 -8.7 -25.3 -7.5 -33.5 2.4 -5 6.1 -5.2 8.8 -4.5 75.9 l0.6 61.5 -26.4 0 c-14.5 0 -33.5 0.3 -42.1 0.7 l-15.7 0.6 -0.6 -3.9 c-0.3 -2.1 -1.3 -5.7 -2.1 -7.9 -1.7 -5 -1.8 -7.2 -0.1 -8.2 0.7 -0.4 4.8 -4.7 9 -9.5 14.6 -16.6 19.1 -30.9 23.3 -73.3 0.8 -8.8 1.9 -20.3 2.5 -25.5 0.5 -5.2 1.5 -13.5 2.4 -18.5 0.8 -4.9 1.7 -11.8 2 -15.2 2 -21.6 10.3 -56.7 14.6 -62.2 1.1 -1.3 1.9 -2.8 1.9 -3.4 0 -0.6 2.9 -5.4 6.5 -10.6 6.9 -10.2 24 -28.5 30.5 -32.6 2.2 -1.4 4 -3 4 -3.5 0 -1.2 17.1 -13.9 23.5 -17.4 2.8 -1.6 5.9 -3.6 7 -4.6 5.3 -4.7 36.2 -23.2 57.8 -34.6 l9.8 -5.2 2.8 5.7 c2.9 6 9.5 15.5 12.7 18.2 4.6 3.9 17.4 10.9 22.4 12.3 10.1 2.8 15.9 2.9 25 0.7 10.8 -2.5 18.6 -6.8 27 -14.8 9.5 -8.9 16.2 -22.8 17.2 -35.5 l0.2 -2.8 28.9 0 c26.9 0 38.6 0.6 62.7 3 27.2 2.7 49.9 5.1 61.5 6.5 7.2 0.8 19.8 2.2 28 3 19.5 2 46.4 5.1 59 7 5.5 0.8 20.6 2.8 33.5 4.5 60.1 7.8 71.4 9.3 84.9 11.6 7.9 1.3 14.5 2.3 14.7 2.1 0.2 -0.2 -5.4 -1.5 -12.4 -3 -7 -1.5 -15.8 -3.4 -19.7 -4.2 -8.3 -1.8 -30.4 -5.9 -42.9 -8.1 -4.9 -0.8 -9.2 -1.6 -9.6 -1.9 -0.3 -0.2 -10.1 -2 -21.7 -3.9 -11.6 -2 -21.6 -3.8 -22.4 -4.1 -1.8 -0.7 -41.3 -6.9 -63.9 -10.1 -75 -10.4 -105.1 -13.3 -148.5 -14.2 l-33 -0.7 -1.6 -6.3 c-0.9 -3.5 -2.7 -8.4 -4 -11 -3.3 -6.6 -16.1 -19.1 -23.4 -22.9 -11.9 -6.2 -26.3 -7.9 -38.9 -4.7 -23.7 6.1 -42.6 31.4 -41.4 55.7 l0.3 6.9 -5.5 2.7 c-23.4 11.5 -64 36 -82 49.6 -5.2 3.9 -12 8.9 -15 11.1 -9.3 6.9 -21.9 19.4 -30.5 30.3 -8.3 10.5 -18.7 28.9 -21.9 38.7 -2.9 8.9 -9.8 50.6 -12.6 75.9 -1.6 13.7 -4.9 44.9 -6 55 -2.1 20.5 -9 37.4 -19.4 48 -3.5 3.6 -7 6.5 -7.7 6.5 -0.8 0 -3.9 -2.4 -7 -5.3 -13.4 -12.8 -37 -15.9 -55.3 -7.2 -13.5 6.4 -24.1 20.1 -27.7 35.8 l-1.4 5.7 -5.7 0 -5.8 0 0 -255.5 0 -255.5 512 0 512 0 0 257.5 c0 141.6 -0.1 257.5 -0.3 257.5 -0.2 0 -0.9 -1 -1.5 -2.2z m-422.9 -133.9 c12.6 -1.8 26.9 -9.6 34.7 -18.9 5.9 -7 12 -19.9 13.2 -27.8 0.6 -3.7 1.2 -7.3 1.4 -7.9 0.3 -1 37.2 -1.3 180.4 -1.3 l180 0 0 -6 0 -6 -181.3 0 -181.2 0 -1.9 -5.2 c-5.7 -16.6 -18.2 -29.1 -36.1 -36.3 -6 -2.4 -8.4 -2.8 -17.5 -2.9 -9.3 -0.1 -11.3 0.2 -17.6 2.7 -19.3 7.5 -31 20.3 -36.3 39.7 -4.4 15.7 -1.6 31.8 7.8 46.3 2.7 4.1 6 8.1 7.3 8.8 1.3 0.7 4.1 2.7 6.3 4.4 5.6 4.6 13.8 8.5 20.9 10 7.7 1.7 11 1.8 19.9 0.4z"/>
  <path d="M140.2 361 c0 -1.9 0.2 -2.7 0.5 -1.7 0.2 0.9 0.2 2.5 0 3.5 -0.3 0.9 -0.5 0.1 -0.5 -1.8z"/>
 </g>
</svg>